<svg xmlns="http://www.w3.org/2000/svg" width="68" height="74.9" viewBox="0 0 68 74.9"><defs><style>.a{fill:#292929;}</style></defs><g transform="translate(-975 -2236)"><g transform="translate(1006.544 2269.976)"><path class="a" d="M241.711,232.255a2.5,2.5,0,0,0-1.066,4.752v3.035a1.066,1.066,0,0,0,2.132,0v-3.035a2.5,2.5,0,0,0-1.066-4.752Z" transform="translate(-239.214 -232.255)"/></g><g transform="translate(980.236 2240.937)"><path class="a" d="M114.787,45.072a18.955,18.955,0,0,1-10.256-9.417,3.369,3.369,0,0,0-3.032-1.906H74.786a3.368,3.368,0,0,0-3.032,1.906A18.955,18.955,0,0,1,61.5,45.072,3.341,3.341,0,0,0,59.379,48.2v6.5a45.385,45.385,0,0,0,7.182,24.331,52.226,52.226,0,0,0,19.88,18.06l.135.071a3.366,3.366,0,0,0,3.132,0l.135-.071a52.227,52.227,0,0,0,19.881-18.06,45.387,45.387,0,0,0,7.182-24.33V48.2A3.341,3.341,0,0,0,114.787,45.072Zm-.013,9.623a43.259,43.259,0,0,1-6.85,23.188A50.1,50.1,0,0,1,88.852,95.2l-.135.071a1.234,1.234,0,0,1-1.149,0l-.135-.071A50.1,50.1,0,0,1,68.361,77.883a43.258,43.258,0,0,1-6.85-23.188V48.2a1.22,1.22,0,0,1,.771-1.144,21.078,21.078,0,0,0,11.4-10.484,1.227,1.227,0,0,1,1.107-.689H101.5a1.227,1.227,0,0,1,1.107.689A21.08,21.08,0,0,0,114,47.054a1.22,1.22,0,0,1,.771,1.144Z" transform="translate(-59.379 -33.749)"/></g><g transform="translate(976.167 2271.912)"><path class="a" d="M96.38,245.574a1.066,1.066,0,0,0-1.275.8c-3.246,14.362-13.134,26.818-27.127,34.173l-3.252,1.709a.721.721,0,0,1-.671,0L60.8,280.551C46.789,273.185,36.9,260.708,33.663,246.32a1.066,1.066,0,1,0-2.08.467c3.37,15,13.659,27.994,28.229,35.651l3.252,1.709a2.852,2.852,0,0,0,2.654,0l3.252-1.709c14.547-7.646,24.831-20.618,28.215-35.59A1.066,1.066,0,0,0,96.38,245.574Z" transform="translate(-31.557 -245.487)"/></g><g transform="translate(975 2236)"><path class="a" d="M89.054,12.2c-5.692-.6-10.168-4.6-10.884-9.716A2.879,2.879,0,0,0,75.342,0H39.826A2.879,2.879,0,0,0,37,2.482C36.281,7.6,31.806,11.6,26.114,12.2a2.834,2.834,0,0,0-2.53,2.834V26.477a49.067,49.067,0,0,0,.256,5,1.066,1.066,0,0,0,1.059.957,1.08,1.08,0,0,0,.11-.006,1.066,1.066,0,0,0,.951-1.169,46.941,46.941,0,0,1-.245-4.78V15.031a.715.715,0,0,1,.622-.714c6.667-.7,11.919-5.449,12.772-11.54a.729.729,0,0,1,.717-.645H75.342a.729.729,0,0,1,.717.645c.852,6.091,6.1,10.837,12.771,11.54a.715.715,0,0,1,.622.714V26.477a46.958,46.958,0,0,1-.24,4.731,1.066,1.066,0,0,0,2.121.216,49.077,49.077,0,0,0,.251-4.947V15.031A2.833,2.833,0,0,0,89.054,12.2Z" transform="translate(-23.584)"/></g><g transform="translate(993.482 2247.101)"><path class="a" d="M177.654,91.389H175.9V86.3a10.416,10.416,0,0,0-20.831,0v5.088h-1.753a3.394,3.394,0,0,0-3.39,3.39v15.262a3.394,3.394,0,0,0,3.39,3.39h24.337a3.394,3.394,0,0,0,3.39-3.39V94.779A3.394,3.394,0,0,0,177.654,91.389ZM157.2,86.3a8.284,8.284,0,0,1,16.568,0v5.088H157.2Zm21.71,23.74a1.26,1.26,0,0,1-1.258,1.258H153.317a1.26,1.26,0,0,1-1.258-1.258V94.779a1.26,1.26,0,0,1,1.258-1.258h24.337a1.26,1.26,0,0,1,1.258,1.258Z" transform="translate(-149.927 -75.885)"/></g></g></svg>